<svg width="1745" height="1457" viewBox="0 0 1745 1457" fill="none" xmlns="http://www.w3.org/2000/svg">
<path d="M304.636 924.2C18.7768 750.594 324.344 707.064 512.86 707C580.225 714.035 703.762 763.679 658.993 905.972C603.031 1083.84 683.711 924.2 839.137 975.43C994.564 1026.66 733.542 1044.7 860.889 1231.58C988.237 1418.46 686.875 1557.19 279.918 1361.29C-127.039 1165.38 661.959 1141.21 304.636 924.2Z" fill="#00AFBE"/>
<path d="M749.64 139.343C169.663 -260.304 841.317 336.23 407.792 243.853C-465.964 16.7454 258.392 480.77 780.328 770.074C800.658 781.247 910.852 836.786 1188.99 969.558C1536.67 1135.52 450.523 397.684 945.037 514.329C1439.55 630.974 1329.62 538.989 749.64 139.343Z" fill="#6EFACD"/>
<path d="M1656.78 893.47C1913.27 761.503 1549.91 685.504 1336.18 664C1216.55 664 989.524 691.233 1038.39 800.166C1099.47 936.333 901.018 986.773 847.545 1165.8C794.072 1344.83 893.411 1517.15 1244.44 1287.9C1595.47 1058.64 1336.18 1058.43 1656.78 893.47Z" fill="#00638F"/>
<path d="M971.011 703.753C712.279 919.96 1013 927.106 1195.69 903.653L1545.18 702.345C1787.78 562.609 1636.86 453.402 1531.07 416.266C1455.93 333.417 1217.31 211.627 863.935 387.251C510.564 562.876 811.174 513.456 1005.65 466.792C1101.91 455.693 1229.74 487.547 971.011 703.753Z" fill="#0B1F46"/>
</svg>
